<svg id="Layer_1" data-name="Layer 1" xmlns="http://www.w3.org/2000/svg" viewBox="0 0 57.69 71.17">
  <defs>
    <style>
      .cls-1 {
        fill: #fcfdff;
      }
    </style>
  </defs>
  <title>nyt-logo</title>
  <path class="cls-1" d="M29,67.42H25a.5.5,0,0,0,0,1h4a.5.5,0,0,0,0-1Zm10-35h2a.5.5,0,0,0,0-1H39a.5.5,0,1,0,0,1Zm3,3H38a.5.5,0,1,0,0,1h4a.5.5,0,0,0,0-1Zm0,4H38a.5.5,0,1,0,0,1h4a.5.5,0,0,0,0-1Zm0,4H38a.5.5,0,0,0,0,1h4a.5.5,0,0,0,0-1Zm0,4H38a.5.5,0,0,0,0,1h4a.5.5,0,0,0,0-1Zm0,4H38a.5.5,0,0,0,0,1h4a.5.5,0,0,0,0-1Zm0,4H38a.5.5,0,0,0,0,1h4a.5.5,0,0,0,0-1Zm0,4H38a.5.5,0,0,0,0,1h4a.5.5,0,0,0,0-1Zm0,4H38a.5.5,0,0,0,0,1h4a.5.5,0,0,0,0-1Zm0,4H38a.5.5,0,1,0,0,1h4a.5.5,0,0,0,0-1Zm0,4H38a.5.5,0,1,0,0,1h4a.5.5,0,0,0,0-1Zm-8-16H33a.5.5,0,0,0,0,1h1a.5.5,0,0,0,0-1Zm0,4H33a.5.5,0,0,0,0,1h1a.5.5,0,0,0,0-1Zm-8,.94a.5.5,0,0,0,.35-.85.52.52,0,0,0-.7,0,.49.49,0,0,0-.15.35.5.5,0,0,0,.15.35A.5.5,0,0,0,26,60.36Zm27.64-.85a.5.5,0,1,0,.71,0A.52.52,0,0,0,53.61,59.51ZM34,63.42H33a.5.5,0,0,0,0,1h1a.5.5,0,0,0,0-1Zm0,4H33a.5.5,0,1,0,0,1h1a.5.5,0,0,0,0-1Zm0,4H33a.5.5,0,1,0,0,1h1a.5.5,0,0,0,0-1Zm13-16H46a.5.5,0,0,0,0,1h1a.5.5,0,0,0,0-1Zm0,4H46a.5.5,0,0,0,0,1h1a.5.5,0,0,0,0-1Zm0,4H46a.5.5,0,0,0,0,1h1a.5.5,0,0,0,0-1Zm0,4H46a.5.5,0,1,0,0,1h1a.5.5,0,0,0,0-1Zm0,4H46a.5.5,0,1,0,0,1h1a.5.5,0,0,0,0-1Zm4-3h4a.5.5,0,0,0,0-1H51a.5.5,0,1,0,0,1ZM44.17,18.2a4.53,4.53,0,0,0-1.68-2.08V13.86a2.5,2.5,0,0,0-2-2.45V4.92a.5.5,0,1,0-1,0v6.49a2.5,2.5,0,0,0-2,2.45v2.26a4.53,4.53,0,0,0-1.69,2.09,28.85,28.85,0,1,0,8.37,0ZM56.8,38.71c0-.08,0-.26,0-.36a2.42,2.42,0,0,1,2.36-2.43h0s.09.08.13.08.28,0,.38-.07a.49.49,0,0,0,.15-.37v-.11s0,0,0-.08a6.1,6.1,0,0,1,2.72-5,27.67,27.67,0,0,1,5.12,13H55.47a2,2,0,0,1,0-4h.86a.51.51,0,0,0,.5-.52A.65.65,0,0,0,56.8,38.71ZM38.48,13.86a1.5,1.5,0,1,1,3,0v1.76a4.41,4.41,0,0,0-3,0Zm-2,6a3.5,3.5,0,0,1,7,0v.53a6.45,6.45,0,0,0-7,0Zm3.5.5a5.5,5.5,0,0,1,5.44,4.72,9.45,9.45,0,0,0-10.87,0A5.51,5.51,0,0,1,40,20.36Zm0,7a5.51,5.51,0,0,0-5.5,5.5V51.42H33.33a4.94,4.94,0,0,0-1.84.35V32.86a8.5,8.5,0,1,1,17,0V51.79a4.9,4.9,0,0,0-1.88-.38H45.48V32.86A5.51,5.51,0,0,0,40,27.36ZM23.45,45.15a.5.5,0,0,0,.4.22,2,2,0,0,1-.06,4H12.28c-.08-.88-.13-1.78-.13-2.68a27.74,27.74,0,0,1,1.45-8.87,6.32,6.32,0,0,1,4-1.51,6.15,6.15,0,0,1,5.77,8.33A.5.5,0,0,0,23.45,45.15ZM12.4,50.42H23.8a3,3,0,0,0,.73-6,7.05,7.05,0,0,0,.27-1.93,7.17,7.17,0,0,0-7.17-7.17,7.08,7.08,0,0,0-3.42.89,27.93,27.93,0,0,1,21.31-17,4.67,4.67,0,0,0,0,.6v1.32a6.48,6.48,0,0,0-2,4.68v.09a9.47,9.47,0,0,0-3,6.91V52.31a4.73,4.73,0,0,0-1.93,3.1H23a.5.5,0,0,0-.5.5v7.5H22a.5.5,0,0,0-.5.5v3.6A27.81,27.81,0,0,1,12.4,50.42Zm16.08,6v7h-5v-7Zm.67,16a.5.5,0,0,0-.17-1H27.12a27.88,27.88,0,0,1-4.64-3.05V64.42H29a.5.5,0,0,0,.5-.5V56.22a3.78,3.78,0,0,1,3.84-3.81H35a.5.5,0,0,0,.5-.5V32.86a4.5,4.5,0,0,1,9,0V51.92a.5.5,0,0,0,.5.5H46.6a3.85,3.85,0,0,1,3.88,3.81v7.69a.5.5,0,0,0,.5.5h6.5v4a27.89,27.89,0,0,1-4.6,3H51a.5.5,0,0,0-.5.5.49.49,0,0,0,.36.47,27.85,27.85,0,0,1-21.69,0Zm22.34-9v-7h5v7Zm7,4.13V63.92a.5.5,0,0,0-.5-.5h-.5v-7.5a.5.5,0,0,0-.5-.5H51.41a4.81,4.81,0,0,0-1.93-3.07V32.86a9.47,9.47,0,0,0-3-6.91v-.09a6.48,6.48,0,0,0-2-4.68V19.86a4.6,4.6,0,0,0,0-.6A27.87,27.87,0,0,1,61.92,29.59a7,7,0,0,0-3.11,5.48,3.36,3.36,0,0,0-3,3.35h-.31a3,3,0,0,0,0,6H67.75c.06.77.1,1.54.1,2.32A27.78,27.78,0,0,1,58.48,67.54Z" transform="translate(-11.15 -4.42)"/>
</svg>
